<svg version="1.0" xmlns="http://www.w3.org/2000/svg" width="1706.667" height="1260" viewBox="0 0 1280 945"><path d="M949.9 6.8c-3.1 3.7-18.1 21.5-33.4 39.7C807.4 175.9 698.8 308.1 558 483c-74.6 92.6-100.2 124.2-127.2 156.8C386.6 693 364.4 716 357 716c-3.1 0-10.2-7.1-19.5-19.5-16.4-21.8-37-55.7-87.5-144-48.8-85.4-65.5-112.8-75.2-123.9l-3.5-4-9.2 3.4c-31.9 11.5-69.2 34.9-106.1 66.6-18.7 16.1-56 53.9-56 56.7 0 4 57.7 82 119.9 162.2 76.1 98.1 138.5 173.6 167 202.4 12.4 12.5 27.6 21 46.9 26.3 10.5 2.9 34.7 3.1 47.2.5 10.2-2.2 31.9-9.3 41.2-13.6 7.7-3.5 9.4-5.5 37.8-41.6 49.8-63.7 74-93.8 110-137 184.8-222 396.6-432.2 624.2-619.3 21.1-17.3 72.3-58.4 80.1-64.2 2.5-1.9 4.7-3.8 4.7-4.3 0-.4-1.5-.7-3.3-.7-5.5 0-34.3-2-51.7-3.6-103-9.3-193.7-28.9-267-57.8-1-.4-3.3 1.6-7.1 6.2z"/></svg>