<?xml version="1.0" encoding="iso-8859-1"?>
<!-- Generator: Adobe Illustrator 19.0.0, SVG Export Plug-In . SVG Version: 6.00 Build 0)  -->
<svg version="1.1" id="Capa_1" xmlns="http://www.w3.org/2000/svg" x="0px" y="0px"
     viewBox="0 0 512.001 512.001" style="enable-background:new 0 0 512.001 512.001;" xml:space="preserve">
<path style="fill:#FF6200;" d="M422.718,59.538l12.828-2.984c6.266-1.192,10.74-6.562,11.635-12.828
	c0.598-6.266-2.686-12.529-8.354-15.215c-99.94-47.137-158.214-22.076-182.975-3.58c-24.762-18.497-82.737-43.557-182.679,3.58
	c-5.668,2.686-9.248,8.95-8.352,15.215c0.598,6.266,5.37,11.635,11.337,12.828l13.127,2.984
	C47.516,82.508-2.304,136.009,0.083,256.237c0,6.264,3.878,11.634,9.844,13.722c5.668,2.088,12.233,0.598,16.111-4.177
	c3.282-3.58,7.458-7.458,11.634-10.441c-5.666,42.661-5.27,133.453,71.401,196.998c3.878,3.282,9.248,4.476,14.319,2.686
	c4.772-1.792,8.651-5.967,9.547-11.04l1.79-7.16c17.603,28.043,51.61,59.368,118.14,73.39c0.894,0.298,2.086,0.298,2.982,0.298
	s2.088,0,2.982-0.298c66.529-14.023,101.83-45.646,119.433-73.39l1.492,7.16c1.192,5.073,4.774,9.248,9.846,11.04
	c4.772,1.79,10.142,0.596,14.319-2.686c76.373-63.544,75.775-154.336,70.109-196.998c4.176,2.982,8.352,6.564,11.634,10.441
	c4.177,4.774,10.741,6.266,16.408,4.177c5.668-2.088,9.547-7.458,9.846-13.722C514.306,136.01,464.187,82.508,422.718,59.538z"/>
<path style="fill:#EB4F00;" d="M511.918,256.237c-0.298,6.264-4.177,11.634-9.846,13.722c-5.666,2.088-12.231,0.598-16.408-4.177
	c-3.282-3.876-7.458-7.458-11.634-10.441c5.666,42.661,6.264,133.453-70.109,196.998c-4.177,3.282-9.547,4.476-14.319,2.686
	c-5.071-1.792-8.653-5.967-9.846-11.04l-1.492-7.16c-17.603,27.745-52.904,59.368-119.433,73.39
	c-0.894,0.298-2.086,0.298-2.982,0.298V24.93c24.762-18.497,83.035-43.557,182.975,3.58c5.668,2.686,8.951,8.95,8.354,15.215
	c-0.896,6.266-5.37,11.635-11.635,12.828l-12.828,2.984C464.187,82.508,514.306,136.01,511.918,256.237z"/>
<path style="fill:#FE8821;" d="M331.428,352.896c0,38.783-32.617,70.704-71.699,70.704h-7.757
	c-39.081,0-70.704-31.921-70.704-70.704l14.917-29.833h120.327L331.428,352.896z"/>
<path style="fill:#E4741B;" d="M331.428,352.896c0,38.783-32.617,70.704-71.699,70.704h-3.878V323.063h60.661L331.428,352.896z"/>
<path style="fill:#FFAC46;" d="M381.846,262.8l-20.585,31.025v29.237c0,16.408-8.95,31.623-23.567,39.38
	c-14.62,7.755-32.221,6.861-45.944-2.088l-20.982-13.425l-14.917-27.745l-14.917,27.745l-19.987,13.425
	c-7.458,4.772-16.111,7.458-24.762,7.458c-7.16,0-14.618-1.79-21.182-5.37c-14.618-7.757-23.567-22.972-23.567-39.38v-29.237
	L130.852,262.8c-25.656-38.185-28.641-87.411-8.056-128.581c9.547-19.093,26.851-33.413,47.436-38.783
	c20.883-5.37,42.96-1.79,60.56,10.142c7.757,5.073,16.409,7.757,25.061,7.757c8.651,0,18.299-2.684,26.055-7.757
	c17.6-11.932,39.677-15.512,60.56-10.142c20.585,5.37,37.889,19.689,47.436,38.783c2.684,5.37,5.071,11.038,6.861,16.707
	c0,0,0,0,0,0.298C409.591,188.814,403.923,229.686,381.846,262.8z"/>
<path style="fill:#FF941D;" d="M381.846,262.8l-20.585,31.025v29.237c0,16.408-8.95,31.623-23.567,39.38
	c-14.62,7.755-32.221,6.861-45.944-2.088l-20.982-13.425l-14.917-27.745V113.336c8.651,0,18.299-2.684,26.055-7.757
	c17.6-11.932,39.677-15.512,60.56-10.142c20.585,5.37,37.889,19.689,47.436,38.783c2.684,5.37,5.071,11.038,6.861,16.707
	c0,0,0,0,0,0.298C409.591,188.814,403.923,229.686,381.846,262.8z"/>
<circle style="fill:#3C3A41;" cx="316.51" cy="169.91" r="14.917"/>
<circle style="fill:#57555C;" cx="196.183" cy="169.91" r="14.917"/>
<g>
	<path style="fill:#73553A;" d="M270.768,289.352v57.578l-14.917-9.846l-14.917,9.846v-57.578c0-8.354,6.562-14.917,14.917-14.917
		S270.768,280.997,270.768,289.352z"/>
	<path style="fill:#73553A;" d="M255.851,214.769c-24.762,0-44.75,19.987-44.75,44.75c0,1.79,0.298,3.878,1.192,5.668
		c0.598,1.79,1.79,3.282,3.283,4.772l29.833,29.833c2.684,2.984,6.562,4.476,10.441,4.476c3.878,0,7.757-1.492,10.441-4.476
		l30.828-29.833c1.493-1.492,2.686-2.982,3.283-4.772c0.894-1.79,1.192-3.878,1.192-5.668
		C301.595,234.756,280.614,214.769,255.851,214.769z"/>
</g>
<g>
	<path style="fill:#59422D;" d="M270.768,289.352v57.578l-14.917-9.846v-62.648C264.206,274.435,270.768,280.997,270.768,289.352z"
		/>
	<path style="fill:#59422D;" d="M301.595,259.519c0,1.79-0.298,3.878-1.192,5.668c-0.598,1.79-1.79,3.282-3.283,4.772
		l-30.827,29.833c-2.684,2.984-6.562,4.476-10.441,4.476v-89.499C280.614,214.769,301.595,234.756,301.595,259.519z"/>
</g>
<g>
</g>
<g>
</g>
<g>
</g>
<g>
</g>
<g>
</g>
<g>
</g>
<g>
</g>
<g>
</g>
<g>
</g>
<g>
</g>
<g>
</g>
<g>
</g>
<g>
</g>
<g>
</g>
<g>
</g>
</svg>
