<svg xmlns="http://www.w3.org/2000/svg" viewBox="0 0 1000 1000"><style>.st3{fill:#c1272d}</style><switch><g><g id="Layer_2"><path fill="#754c24" d="M469.5 811.1h69.7v135.8h-69.7z"/><path d="M776.2 802.2S669.7 859.9 500 855.7c-78.6 1.9-143.6-9.4-190.8-22.2-54.7-14.8-85.4-31.4-85.4-31.4l21.1-31.9 83.9-126.8c-24-12.3-37-22.8-37-22.8L400 442.2c-23.6-7.6-36.7-15.6-36.7-15.6l73.6-129c-14.7-6.2-22.8-12.5-22.8-12.5L500 123l85.9 162.1s-8.2 6.3-22.8 12.5l73.6 129s-13.1 7.9-36.7 15.6l108.3 178.5s-13.1 10.5-37 22.8l15.4 23.2 42.7 64.6 46.8 70.9z" fill="#006837"/><path fill="#f2d04b" stroke="#f2d04b" stroke-width="10" stroke-linecap="round" stroke-linejoin="round" stroke-miterlimit="10" d="M501.6 91.6l-29.1 15.3 5.5-32.4-23.5-23 32.5-4.8 14.6-29.5 14.6 29.5 32.6 4.8-23.6 23 5.5 32.4z"/><path class="st3" d="M435.5 244.6L548.8 215l21.9 41.3-133.8 41.4-22.8-12.6zM363.3 426.7L602.1 366l-31.4-55.1-170.4 51zM636.7 426.7l-265.3 62.8-44.3 73 304.6-67.9-31.7-52.4zM306.2 630.7l352.9-91 34 56-402.5 105.4 38.2-57.6zM729.3 731.3L309.2 833.6c-54.7-14.8-85.4-31.4-85.4-31.4l21.1-31.9 441.7-103.6 42.7 64.6z"/></g></g></switch></svg>