<svg xmlns="http://www.w3.org/2000/svg" viewBox="0 0 1000 1000"><style>.st1{fill:#006837}</style><switch><g><g id="Layer_2"><path fill="#754c24" d="M469.5 811.1h69.7v135.8h-69.7z"/><path class="st1" d="M500 123l-85.9 162.1s33.1 25.8 85.9 24.2c52.8 1.6 85.9-24.2 85.9-24.2L500 123z"/><path class="st1" d="M500 187.1L363.3 426.7S416 458.5 500 456.2c84 2.4 136.7-29.5 136.7-29.5L500 187.1z"/><path class="st1" d="M500 277.4L291.8 620.7s80.3 64.5 208.2 61.1c127.9 3.4 208.2-61.1 208.2-61.1L500 277.4z"/><path class="st1" d="M500 384.5L223.8 802.2s106.5 57.7 276.2 53.5c169.7 4.2 276.2-53.5 276.2-53.5L500 384.5z"/><path fill="#f2d04b" stroke="#f2d04b" stroke-width="10" stroke-linecap="round" stroke-linejoin="round" stroke-miterlimit="10" d="M501.6 91.6l-29.1 15.3 5.5-32.4-23.5-23 32.5-4.8 14.6-29.5 14.6 29.5 32.6 4.8-23.6 23 5.5 32.4z"/></g></g></switch></svg>